<svg width="296" height="294" viewBox="0 0 296 294" fill="none" xmlns="http://www.w3.org/2000/svg">
<g style="mix-blend-mode:darken" filter="url(#filter0_d_0_1)">
<path d="M206.87 33.5599C204.97 30.8449 201.229 30.1842 198.514 32.0841C195.799 33.984 195.138 37.7251 197.038 40.4401L206.87 33.5599ZM277.532 145L272.616 148.44L272.622 148.448L277.532 145ZM286 174.143L280 174.143L286 174.143ZM277.532 203.286L272.622 199.838L272.616 199.846L277.532 203.286ZM221.031 273.56L217.591 278.476L227.423 285.356L230.863 280.44L221.031 273.56ZM197.038 40.4401L272.616 148.44L282.448 141.56L206.87 33.5599L197.038 40.4401ZM272.622 148.448C274.885 151.672 276.747 155.6 278.037 160.039L289.561 156.691C287.944 151.128 285.547 145.973 282.442 141.552L272.622 148.448ZM278.037 160.039C279.326 164.475 280 169.272 280 174.143H292C292 168.184 291.178 162.257 289.561 156.691L278.037 160.039ZM280 174.143C280 179.014 279.326 183.811 278.037 188.246L289.561 191.595C291.178 186.028 292 180.102 292 174.143L280 174.143ZM278.037 188.246C276.747 192.685 274.885 196.614 272.622 199.838L282.442 206.734C285.547 202.313 287.944 197.158 289.561 191.595L278.037 188.246ZM272.616 199.846L221.031 273.56L230.863 280.44L282.448 206.726L272.616 199.846Z" fill="#41B883"/>
<path d="M137.005 47.0457C132.507 40.6154 126.405 37.0019 120.042 37H57.9965C54.8148 37 51.7635 38.8061 49.5137 42.021C47.2639 45.2359 46 49.5963 46 54.1429V142.806C46.0014 151.898 48.5301 160.617 53.0299 167.046L121.458 264.829C126.91 272.571 134.285 276.917 141.972 276.917C149.658 276.917 157.033 272.571 162.486 264.829L205.433 203.457C210.851 195.665 213.892 185.127 213.892 174.143C213.892 163.159 210.851 152.62 205.433 144.829L137.005 47.0457Z" stroke="#35495E" stroke-width="12" stroke-linecap="round" stroke-linejoin="round"/>
<path d="M99.984 126.714C103.304 126.714 105.901 124.786 107.503 122.497C109.113 120.196 109.982 117.23 109.982 114.143C109.982 111.056 109.113 108.09 107.503 105.789C105.901 103.5 103.304 101.571 99.984 101.571C96.6636 101.571 94.067 103.5 92.4653 105.789C90.8548 108.09 89.9857 111.056 89.9857 114.143C89.9857 117.23 90.8548 120.196 92.4653 122.497C94.067 124.786 96.6636 126.714 99.984 126.714Z" fill="white" stroke="#35495E" stroke-width="8" stroke-linecap="round" stroke-linejoin="round"/>
</g>
<defs>
<filter id="filter0_d_0_1" x="36" y="30.9995" width="260" height="262.356" filterUnits="userSpaceOnUse" color-interpolation-filters="sRGB">
<feFlood flood-opacity="0" result="BackgroundImageFix"/>
<feColorMatrix in="SourceAlpha" type="matrix" values="0 0 0 0 0 0 0 0 0 0 0 0 0 0 0 0 0 0 127 0" result="hardAlpha"/>
<feOffset dy="4"/>
<feGaussianBlur stdDeviation="2"/>
<feComposite in2="hardAlpha" operator="out"/>
<feColorMatrix type="matrix" values="0 0 0 0 0 0 0 0 0 0 0 0 0 0 0 0 0 0 0.25 0"/>
<feBlend mode="normal" in2="BackgroundImageFix" result="effect1_dropShadow_0_1"/>
<feBlend mode="normal" in="SourceGraphic" in2="effect1_dropShadow_0_1" result="shape"/>
</filter>
</defs>
</svg>
